<svg width="24" height="24" viewBox="0 0 24 24" fill="none" xmlns="http://www.w3.org/2000/svg">
<path d="M21.5939 13.062V19.56C21.5947 19.7339 21.5611 19.9062 21.4952 20.067C21.4292 20.2279 21.3321 20.3741 21.2094 20.4973C21.0868 20.6205 20.941 20.7183 20.7804 20.785C20.6199 20.8517 20.4478 20.886 20.2739 20.886H15.0659C14.7142 20.886 14.377 20.7463 14.1283 20.4976C13.8796 20.249 13.7399 19.9117 13.7399 19.56V15.624C13.7399 15.161 13.5559 14.7168 13.2285 14.3894C12.9011 14.062 12.457 13.878 11.9939 13.878C11.5308 13.878 11.0867 14.062 10.7593 14.3894C10.4319 14.7168 10.2479 15.161 10.2479 15.624V19.56C10.2487 19.7339 10.2151 19.9062 10.1492 20.067C10.0832 20.2279 9.98606 20.3741 9.86341 20.4973C9.74076 20.6205 9.59498 20.7183 9.43443 20.785C9.27389 20.8517 9.10175 20.886 8.9279 20.886H3.7199C3.36927 20.8844 3.03353 20.744 2.78615 20.4955C2.53878 20.247 2.3999 19.9107 2.3999 19.56V13.062C2.39965 12.4777 2.63042 11.9169 3.0419 11.502L11.1239 3.36002C11.2391 3.24537 11.3757 3.15456 11.5261 3.09279C11.6764 3.03101 11.8374 2.99949 11.9999 3.00002C12.1607 2.99908 12.32 3.03046 12.4684 3.09231C12.6169 3.15415 12.7514 3.24519 12.8639 3.36002L20.9519 11.502C21.157 11.7065 21.3194 11.9497 21.4296 12.2175C21.5398 12.4853 21.5957 12.7724 21.5939 13.062V13.062Z" stroke="#85786A" stroke-width="1.3"/>
</svg>
