<svg width="25" height="25" viewBox="0 0 25 25" fill="none" xmlns="http://www.w3.org/2000/svg">
<path d="M16.9333 15H8.06099C7.39637 15 6.73827 15.148 6.12424 15.4355C5.51021 15.723 4.95228 16.1444 4.48233 16.6756C4.01237 17.2069 3.63959 17.8375 3.38526 18.5316C3.13092 19.2257 3 19.9696 3 20.7209V21.5685C3 22.1656 3.82362 22.1271 3.82362 21.5299V20.7209C3.82362 19.4506 4.27005 18.2322 5.06471 17.3339C5.85937 16.4357 6.93717 15.931 8.06099 15.931H16.9333C17.4903 15.9302 18.0419 16.0534 18.5567 16.2938C19.0714 16.5341 19.5392 16.8868 19.9333 17.3317C20.3274 17.7765 20.64 18.3049 20.8533 18.8864C21.0666 19.468 21.1764 20.0914 21.1764 20.7209V21.5299C21.1764 22.1271 21.9943 22.172 22 21.5685V20.7209C22 19.9691 21.8689 19.2246 21.6142 18.5301C21.3595 17.8356 20.9862 17.2047 20.5157 16.6733C20.0451 16.142 19.4865 15.7208 18.8718 15.4336C18.2571 15.1465 17.5984 14.9992 16.9333 15Z" fill="#85786A" stroke="#85786A" stroke-width="0.5"/>
<path d="M12.5058 14C13.5934 13.9988 14.6562 13.6753 15.5599 13.0703C16.4636 12.4652 17.1676 11.6058 17.583 10.6007C17.9984 9.59563 18.1065 8.48995 17.8936 7.42344C17.6807 6.35693 17.1564 5.37747 16.387 4.60886C15.6176 3.84025 14.6376 3.31701 13.5709 3.10526C12.5041 2.89351 11.3985 3.00277 10.3939 3.41922C9.38924 3.83567 8.5306 4.54062 7.92651 5.44497C7.32242 6.34931 7 7.41245 7 8.5C7.00154 9.95923 7.58229 11.3582 8.61467 12.3894C9.64704 13.4207 11.0466 14 12.5058 14ZM12.5058 3.84973C13.4267 3.84973 14.3269 4.12281 15.0926 4.63443C15.8583 5.14604 16.4551 5.87323 16.8075 6.72401C17.1599 7.5748 17.2521 8.51098 17.0724 9.41418C16.8928 10.3174 16.4493 11.147 15.7982 11.7982C15.147 12.4493 14.3174 12.8928 13.4142 13.0724C12.511 13.2521 11.5748 13.1599 10.724 12.8075C9.87322 12.4551 9.14603 11.8583 8.63442 11.0926C8.1228 10.3269 7.84973 9.42671 7.84973 8.50582C7.84973 7.27095 8.34028 6.08666 9.21346 5.21347C10.0866 4.34029 11.2709 3.84973 12.5058 3.84973Z" fill="#85786A" stroke="#85786A" stroke-width="0.5"/>
</svg>
